<svg width="1024" height="1024" viewBox="0 0 1024 1024" fill="none" xmlns="http://www.w3.org/2000/svg">
<rect width="1024" height="1024" rx="220" fill="#FE2C55"/>
<polygon points="455.6,8.8 601.2,8.8 616.8,129.8 680.7,201.4 787.1,223.8 787.1,371.7 715.4,371.7 652.7,352.6 601.2,315.7 601.2,539.7 594.4,630.4 549.6,704.3 480.2,753.6 392.8,773.8 310.0,771.5 232.7,742.4 173.3,690.9 144.2,624.8 136.4,568.8 136.4,449.0 228.2,360.5 346.9,360.5 404.0,369.4 404.0,519.5 387.2,508.3 368.2,502.7 348.0,502.7 304.4,502.7 271.9,533.0 271.9,573.3 271.9,615.8 306.6,645.0 352.5,645.0 401.8,645.0 455.6,612.5 455.6,533.0" transform="translate(-25 24)" fill="#25F4EE" opacity="0.5"/>
<polygon points="455.6,8.8 601.2,8.8 616.8,129.8 680.7,201.4 787.1,223.8 787.1,371.7 715.4,371.7 652.7,352.6 601.2,315.7 601.2,539.7 594.4,630.4 549.6,704.3 480.2,753.6 392.8,773.8 310.0,771.5 232.7,742.4 173.3,690.9 144.2,624.8 136.4,568.8 136.4,449.0 228.2,360.5 346.9,360.5 404.0,369.4 404.0,519.5 387.2,508.3 368.2,502.7 348.0,502.7 304.4,502.7 271.9,533.0 271.9,573.3 271.9,615.8 306.6,645.0 352.5,645.0 401.8,645.0 455.6,612.5 455.6,533.0" transform="translate(42 -30)" fill="#111827" opacity="0.36"/>
<polygon points="455.6,8.8 601.2,8.8 616.8,129.8 680.7,201.4 787.1,223.8 787.1,371.7 715.4,371.7 652.7,352.6 601.2,315.7 601.2,539.7 594.4,630.4 549.6,704.3 480.2,753.6 392.8,773.8 310.0,771.5 232.7,742.4 173.3,690.9 144.2,624.8 136.4,568.8 136.4,449.0 228.2,360.5 346.9,360.5 404.0,369.4 404.0,519.5 387.2,508.3 368.2,502.7 348.0,502.7 304.4,502.7 271.9,533.0 271.9,573.3 271.9,615.8 306.6,645.0 352.5,645.0 401.8,645.0 455.6,612.5 455.6,533.0" fill="white"/>
<circle cx="752" cy="752" r="210" fill="#111827"/>
<ellipse cx="752" cy="752" rx="174" ry="82" fill="white"/>
<circle cx="752" cy="752" r="62" fill="#111827"/>
<circle cx="793" cy="734" r="20" fill="#25F4EE"/>
<path d="M580 752C626 680 684 646 752 646C820 646 878 680 924 752C878 824 820 858 752 858C684 858 626 824 580 752Z" stroke="#25F4EE" stroke-width="28" stroke-linecap="round" stroke-linejoin="round"/>
</svg>